<svg width="94" height="94" viewBox="0 0 94 94" fill="none" xmlns="http://www.w3.org/2000/svg">
<path d="M47 5.875C24.2895 5.875 5.875 24.2895 5.875 47C5.875 69.7105 24.2895 88.125 47 88.125C69.7105 88.125 88.125 69.7105 88.125 47C88.125 24.2895 69.7105 5.875 47 5.875ZM60.2279 47.6334L40.1795 62.2199C40.0696 62.2989 39.94 62.3461 39.8051 62.3562C39.6701 62.3663 39.5349 62.3391 39.4145 62.2774C39.294 62.2158 39.1928 62.1221 39.1221 62.0067C39.0514 61.8913 39.0139 61.7586 39.0137 61.6232V32.4686C39.0132 32.3329 39.0503 32.1998 39.1209 32.084C39.1915 31.9682 39.2927 31.8742 39.4135 31.8124C39.5342 31.7506 39.6697 31.7235 39.8049 31.734C39.9401 31.7445 40.0697 31.7922 40.1795 31.8719L60.2279 46.4492C60.3226 46.5162 60.3999 46.6049 60.4532 46.708C60.5066 46.811 60.5344 46.9253 60.5344 47.0413C60.5344 47.1573 60.5066 47.2716 60.4532 47.3747C60.3999 47.4777 60.3226 47.5664 60.2279 47.6334Z" fill="#D4AF37"/>
<path d="M62.5274 44.2264C64.2344 45.4196 64.2362 47.9464 62.5308 49.1419L42.8112 62.9652C40.8239 64.3583 38.0909 62.9377 38.0892 60.5107L38.0701 32.8915C38.0684 30.4644 40.7994 29.0401 42.7887 30.4305L62.5274 44.2264Z" fill="white"/>
</svg>
