<svg width="34" height="34" viewBox="0 0 34 34" fill="none" xmlns="http://www.w3.org/2000/svg">
<path d="M25.5 11.3333H26.9167C28.4196 11.3333 29.8609 11.9304 30.9236 12.9931C31.9863 14.0558 32.5833 15.4971 32.5833 17C32.5833 18.5029 31.9863 19.9442 30.9236 21.0069C29.8609 22.0697 28.4196 22.6667 26.9167 22.6667H25.5" stroke="#D4AF37" stroke-width="2" stroke-linecap="round" stroke-linejoin="round"/>
<path d="M2.83333 11.3333H25.5V24.0833C25.5 25.5862 24.903 27.0276 23.8403 28.0903C22.7776 29.153 21.3362 29.75 19.8333 29.75H8.49999C6.9971 29.75 5.55576 29.153 4.49306 28.0903C3.43035 27.0276 2.83333 25.5862 2.83333 24.0833V11.3333Z" stroke="#D4AF37" stroke-width="2" stroke-linecap="round" stroke-linejoin="round"/>
<path d="M8.5 1.41666V5.66666" stroke="#D4AF37" stroke-width="2" stroke-linecap="round" stroke-linejoin="round"/>
<path d="M14.1667 1.41666V5.66666" stroke="#D4AF37" stroke-width="2" stroke-linecap="round" stroke-linejoin="round"/>
<path d="M19.8333 1.41666V5.66666" stroke="#D4AF37" stroke-width="2" stroke-linecap="round" stroke-linejoin="round"/>
</svg>
